<mxfile host="app.diagrams.net" modified="2024-02-12T06:47:35.496Z" agent="Mozilla/5.0 (Windows NT 10.0; Win64; x64) AppleWebKit/537.36 (KHTML, like Gecko) Chrome/121.0.0.0 Safari/537.36 Edg/121.0.0.0" etag="zEQE8ZFSQcpxN3iIwCpO" version="22.1.19" type="github">
  <diagram name="Page-1" id="8xoFzs__v3jjleJcGe1v">
    <mxGraphModel dx="2377" dy="1322" grid="1" gridSize="10" guides="1" tooltips="1" connect="1" arrows="1" fold="1" page="1" pageScale="1" pageWidth="827" pageHeight="1169" math="0" shadow="0">
      <root>
        <mxCell id="0" />
        <mxCell id="1" parent="0" />
        <mxCell id="QSTW8lEdJ63yRF9R9Cr1-3" style="edgeStyle=orthogonalEdgeStyle;rounded=0;orthogonalLoop=1;jettySize=auto;html=1;" edge="1" parent="1" source="QSTW8lEdJ63yRF9R9Cr1-1" target="QSTW8lEdJ63yRF9R9Cr1-2">
          <mxGeometry relative="1" as="geometry" />
        </mxCell>
        <mxCell id="QSTW8lEdJ63yRF9R9Cr1-1" value="start" style="ellipse;whiteSpace=wrap;html=1;" vertex="1" parent="1">
          <mxGeometry x="40" y="50" width="120" height="80" as="geometry" />
        </mxCell>
        <mxCell id="QSTW8lEdJ63yRF9R9Cr1-5" style="edgeStyle=orthogonalEdgeStyle;rounded=0;orthogonalLoop=1;jettySize=auto;html=1;entryX=0;entryY=0.5;entryDx=0;entryDy=0;" edge="1" parent="1" source="QSTW8lEdJ63yRF9R9Cr1-2" target="QSTW8lEdJ63yRF9R9Cr1-4">
          <mxGeometry relative="1" as="geometry" />
        </mxCell>
        <mxCell id="QSTW8lEdJ63yRF9R9Cr1-2" value="automatischeren bit" style="rounded=1;whiteSpace=wrap;html=1;" vertex="1" parent="1">
          <mxGeometry x="210" y="60" width="120" height="60" as="geometry" />
        </mxCell>
        <mxCell id="QSTW8lEdJ63yRF9R9Cr1-7" style="edgeStyle=orthogonalEdgeStyle;rounded=0;orthogonalLoop=1;jettySize=auto;html=1;" edge="1" parent="1" source="QSTW8lEdJ63yRF9R9Cr1-4" target="QSTW8lEdJ63yRF9R9Cr1-6">
          <mxGeometry relative="1" as="geometry" />
        </mxCell>
        <mxCell id="QSTW8lEdJ63yRF9R9Cr1-4" value="QR generen om te kunnen bidden" style="rounded=1;whiteSpace=wrap;html=1;" vertex="1" parent="1">
          <mxGeometry x="370" y="60" width="120" height="60" as="geometry" />
        </mxCell>
        <mxCell id="QSTW8lEdJ63yRF9R9Cr1-10" style="edgeStyle=orthogonalEdgeStyle;rounded=0;orthogonalLoop=1;jettySize=auto;html=1;entryX=0;entryY=0.5;entryDx=0;entryDy=0;" edge="1" parent="1" source="QSTW8lEdJ63yRF9R9Cr1-6" target="QSTW8lEdJ63yRF9R9Cr1-8">
          <mxGeometry relative="1" as="geometry" />
        </mxCell>
        <mxCell id="QSTW8lEdJ63yRF9R9Cr1-6" value="QR verbinden met systemen van bit proccess" style="rounded=1;whiteSpace=wrap;html=1;" vertex="1" parent="1">
          <mxGeometry x="530" y="60" width="120" height="60" as="geometry" />
        </mxCell>
        <mxCell id="QSTW8lEdJ63yRF9R9Cr1-11" style="edgeStyle=orthogonalEdgeStyle;rounded=0;orthogonalLoop=1;jettySize=auto;html=1;entryX=0.5;entryY=0;entryDx=0;entryDy=0;" edge="1" parent="1" source="QSTW8lEdJ63yRF9R9Cr1-8" target="QSTW8lEdJ63yRF9R9Cr1-9">
          <mxGeometry relative="1" as="geometry" />
        </mxCell>
        <mxCell id="QSTW8lEdJ63yRF9R9Cr1-8" value="Testen van het process" style="rounded=1;whiteSpace=wrap;html=1;" vertex="1" parent="1">
          <mxGeometry x="680" y="60" width="120" height="60" as="geometry" />
        </mxCell>
        <mxCell id="QSTW8lEdJ63yRF9R9Cr1-12" style="edgeStyle=orthogonalEdgeStyle;rounded=0;orthogonalLoop=1;jettySize=auto;html=1;" edge="1" parent="1" source="QSTW8lEdJ63yRF9R9Cr1-9" target="QSTW8lEdJ63yRF9R9Cr1-2">
          <mxGeometry relative="1" as="geometry" />
        </mxCell>
        <mxCell id="QSTW8lEdJ63yRF9R9Cr1-13" value="Nee" style="edgeLabel;html=1;align=center;verticalAlign=middle;resizable=0;points=[];" vertex="1" connectable="0" parent="QSTW8lEdJ63yRF9R9Cr1-12">
          <mxGeometry x="-0.2784" y="-2" relative="1" as="geometry">
            <mxPoint as="offset" />
          </mxGeometry>
        </mxCell>
        <mxCell id="QSTW8lEdJ63yRF9R9Cr1-9" value="Werk het bidden via QR" style="rhombus;whiteSpace=wrap;html=1;" vertex="1" parent="1">
          <mxGeometry x="700" y="160" width="80" height="80" as="geometry" />
        </mxCell>
        <mxCell id="QSTW8lEdJ63yRF9R9Cr1-19" style="edgeStyle=orthogonalEdgeStyle;rounded=0;orthogonalLoop=1;jettySize=auto;html=1;" edge="1" parent="1" source="QSTW8lEdJ63yRF9R9Cr1-14" target="QSTW8lEdJ63yRF9R9Cr1-17">
          <mxGeometry relative="1" as="geometry" />
        </mxCell>
        <mxCell id="QSTW8lEdJ63yRF9R9Cr1-14" value="Identificeren of plaatsen voor eventen al bezet zijn" style="rounded=1;whiteSpace=wrap;html=1;" vertex="1" parent="1">
          <mxGeometry x="860" y="160" width="160" height="80" as="geometry" />
        </mxCell>
        <mxCell id="QSTW8lEdJ63yRF9R9Cr1-15" value="" style="edgeStyle=orthogonalEdgeStyle;rounded=0;orthogonalLoop=1;jettySize=auto;html=1;" edge="1" parent="1" source="QSTW8lEdJ63yRF9R9Cr1-9" target="QSTW8lEdJ63yRF9R9Cr1-14">
          <mxGeometry relative="1" as="geometry" />
        </mxCell>
        <mxCell id="QSTW8lEdJ63yRF9R9Cr1-16" value="Ja" style="edgeLabel;html=1;align=center;verticalAlign=middle;resizable=0;points=[];" vertex="1" connectable="0" parent="QSTW8lEdJ63yRF9R9Cr1-15">
          <mxGeometry x="-0.2667" y="-3" relative="1" as="geometry">
            <mxPoint as="offset" />
          </mxGeometry>
        </mxCell>
        <mxCell id="QSTW8lEdJ63yRF9R9Cr1-21" style="edgeStyle=orthogonalEdgeStyle;rounded=0;orthogonalLoop=1;jettySize=auto;html=1;" edge="1" parent="1" source="QSTW8lEdJ63yRF9R9Cr1-17" target="QSTW8lEdJ63yRF9R9Cr1-20">
          <mxGeometry relative="1" as="geometry" />
        </mxCell>
        <mxCell id="QSTW8lEdJ63yRF9R9Cr1-17" value="kalender voor events beginnen" style="rounded=1;whiteSpace=wrap;html=1;" vertex="1" parent="1">
          <mxGeometry x="1060" y="170" width="120" height="60" as="geometry" />
        </mxCell>
        <mxCell id="QSTW8lEdJ63yRF9R9Cr1-23" style="edgeStyle=orthogonalEdgeStyle;rounded=0;orthogonalLoop=1;jettySize=auto;html=1;entryX=0;entryY=0.5;entryDx=0;entryDy=0;" edge="1" parent="1" source="QSTW8lEdJ63yRF9R9Cr1-20" target="QSTW8lEdJ63yRF9R9Cr1-22">
          <mxGeometry relative="1" as="geometry" />
        </mxCell>
        <mxCell id="QSTW8lEdJ63yRF9R9Cr1-20" value="Events invullen op de kalender" style="rounded=1;whiteSpace=wrap;html=1;" vertex="1" parent="1">
          <mxGeometry x="1210" y="170" width="120" height="60" as="geometry" />
        </mxCell>
        <mxCell id="QSTW8lEdJ63yRF9R9Cr1-25" style="edgeStyle=orthogonalEdgeStyle;rounded=0;orthogonalLoop=1;jettySize=auto;html=1;" edge="1" parent="1" source="QSTW8lEdJ63yRF9R9Cr1-22" target="QSTW8lEdJ63yRF9R9Cr1-24">
          <mxGeometry relative="1" as="geometry" />
        </mxCell>
        <mxCell id="QSTW8lEdJ63yRF9R9Cr1-22" value="AI toevoegen met zoekfunctie of een event bezet is." style="rounded=1;whiteSpace=wrap;html=1;" vertex="1" parent="1">
          <mxGeometry x="1360" y="170" width="120" height="60" as="geometry" />
        </mxCell>
        <mxCell id="QSTW8lEdJ63yRF9R9Cr1-27" style="edgeStyle=orthogonalEdgeStyle;rounded=0;orthogonalLoop=1;jettySize=auto;html=1;entryX=0.5;entryY=0;entryDx=0;entryDy=0;" edge="1" parent="1" source="QSTW8lEdJ63yRF9R9Cr1-24" target="QSTW8lEdJ63yRF9R9Cr1-26">
          <mxGeometry relative="1" as="geometry" />
        </mxCell>
        <mxCell id="QSTW8lEdJ63yRF9R9Cr1-24" value="Testen van de AI op de kalaneder" style="rounded=1;whiteSpace=wrap;html=1;" vertex="1" parent="1">
          <mxGeometry x="1510" y="170" width="120" height="60" as="geometry" />
        </mxCell>
        <mxCell id="QSTW8lEdJ63yRF9R9Cr1-28" style="edgeStyle=orthogonalEdgeStyle;rounded=0;orthogonalLoop=1;jettySize=auto;html=1;" edge="1" parent="1" source="QSTW8lEdJ63yRF9R9Cr1-26" target="QSTW8lEdJ63yRF9R9Cr1-9">
          <mxGeometry relative="1" as="geometry" />
        </mxCell>
        <mxCell id="QSTW8lEdJ63yRF9R9Cr1-29" value="Nee" style="edgeLabel;html=1;align=center;verticalAlign=middle;resizable=0;points=[];" vertex="1" connectable="0" parent="QSTW8lEdJ63yRF9R9Cr1-28">
          <mxGeometry x="-0.2086" y="-2" relative="1" as="geometry">
            <mxPoint as="offset" />
          </mxGeometry>
        </mxCell>
        <mxCell id="QSTW8lEdJ63yRF9R9Cr1-35" style="edgeStyle=orthogonalEdgeStyle;rounded=0;orthogonalLoop=1;jettySize=auto;html=1;" edge="1" parent="1" source="QSTW8lEdJ63yRF9R9Cr1-26" target="QSTW8lEdJ63yRF9R9Cr1-32">
          <mxGeometry relative="1" as="geometry" />
        </mxCell>
        <mxCell id="QSTW8lEdJ63yRF9R9Cr1-36" value="ja" style="edgeLabel;html=1;align=center;verticalAlign=middle;resizable=0;points=[];" vertex="1" connectable="0" parent="QSTW8lEdJ63yRF9R9Cr1-35">
          <mxGeometry x="0.6128" y="5" relative="1" as="geometry">
            <mxPoint as="offset" />
          </mxGeometry>
        </mxCell>
        <mxCell id="QSTW8lEdJ63yRF9R9Cr1-26" value="werk de AI" style="rhombus;whiteSpace=wrap;html=1;" vertex="1" parent="1">
          <mxGeometry x="1530" y="290" width="80" height="80" as="geometry" />
        </mxCell>
        <mxCell id="QSTW8lEdJ63yRF9R9Cr1-38" style="edgeStyle=orthogonalEdgeStyle;rounded=0;orthogonalLoop=1;jettySize=auto;html=1;entryX=0;entryY=0.5;entryDx=0;entryDy=0;" edge="1" parent="1" source="QSTW8lEdJ63yRF9R9Cr1-32" target="QSTW8lEdJ63yRF9R9Cr1-37">
          <mxGeometry relative="1" as="geometry" />
        </mxCell>
        <mxCell id="QSTW8lEdJ63yRF9R9Cr1-32" value="Ograniseren pakeer mogelijkheden" style="rounded=1;whiteSpace=wrap;html=1;" vertex="1" parent="1">
          <mxGeometry x="1630" y="300" width="120" height="60" as="geometry" />
        </mxCell>
        <mxCell id="QSTW8lEdJ63yRF9R9Cr1-42" style="edgeStyle=orthogonalEdgeStyle;rounded=0;orthogonalLoop=1;jettySize=auto;html=1;entryX=0;entryY=0.5;entryDx=0;entryDy=0;" edge="1" parent="1" source="QSTW8lEdJ63yRF9R9Cr1-37" target="QSTW8lEdJ63yRF9R9Cr1-39">
          <mxGeometry relative="1" as="geometry" />
        </mxCell>
        <mxCell id="QSTW8lEdJ63yRF9R9Cr1-37" value="Standaard mail opzetten" style="rounded=1;whiteSpace=wrap;html=1;" vertex="1" parent="1">
          <mxGeometry x="1790" y="300" width="120" height="60" as="geometry" />
        </mxCell>
        <mxCell id="QSTW8lEdJ63yRF9R9Cr1-43" style="edgeStyle=orthogonalEdgeStyle;rounded=0;orthogonalLoop=1;jettySize=auto;html=1;entryX=0;entryY=0.5;entryDx=0;entryDy=0;" edge="1" parent="1" source="QSTW8lEdJ63yRF9R9Cr1-39" target="QSTW8lEdJ63yRF9R9Cr1-40">
          <mxGeometry relative="1" as="geometry" />
        </mxCell>
        <mxCell id="QSTW8lEdJ63yRF9R9Cr1-39" value="&amp;nbsp;auto Mail adressen van parkmogelijkheden vinden (die de eigenaar zijn)&amp;nbsp;" style="rounded=1;whiteSpace=wrap;html=1;" vertex="1" parent="1">
          <mxGeometry x="1940" y="300" width="120" height="60" as="geometry" />
        </mxCell>
        <mxCell id="QSTW8lEdJ63yRF9R9Cr1-44" style="edgeStyle=orthogonalEdgeStyle;rounded=0;orthogonalLoop=1;jettySize=auto;html=1;entryX=0;entryY=0.5;entryDx=0;entryDy=0;" edge="1" parent="1" source="QSTW8lEdJ63yRF9R9Cr1-40" target="QSTW8lEdJ63yRF9R9Cr1-41">
          <mxGeometry relative="1" as="geometry" />
        </mxCell>
        <mxCell id="QSTW8lEdJ63yRF9R9Cr1-40" value="Zodra hun ja hebben gezegt op de mail laten toevoegen in kalender" style="rounded=1;whiteSpace=wrap;html=1;" vertex="1" parent="1">
          <mxGeometry x="2100" y="300" width="120" height="60" as="geometry" />
        </mxCell>
        <mxCell id="QSTW8lEdJ63yRF9R9Cr1-50" style="edgeStyle=orthogonalEdgeStyle;rounded=0;orthogonalLoop=1;jettySize=auto;html=1;entryX=0.5;entryY=0;entryDx=0;entryDy=0;" edge="1" parent="1" source="QSTW8lEdJ63yRF9R9Cr1-41" target="QSTW8lEdJ63yRF9R9Cr1-45">
          <mxGeometry relative="1" as="geometry" />
        </mxCell>
        <mxCell id="QSTW8lEdJ63yRF9R9Cr1-41" value="Laten testen" style="rounded=1;whiteSpace=wrap;html=1;" vertex="1" parent="1">
          <mxGeometry x="2270" y="300" width="120" height="60" as="geometry" />
        </mxCell>
        <mxCell id="QSTW8lEdJ63yRF9R9Cr1-47" style="edgeStyle=orthogonalEdgeStyle;rounded=0;orthogonalLoop=1;jettySize=auto;html=1;entryX=0.5;entryY=1;entryDx=0;entryDy=0;" edge="1" parent="1" source="QSTW8lEdJ63yRF9R9Cr1-45" target="QSTW8lEdJ63yRF9R9Cr1-26">
          <mxGeometry relative="1" as="geometry" />
        </mxCell>
        <mxCell id="QSTW8lEdJ63yRF9R9Cr1-48" value="nee" style="edgeLabel;html=1;align=center;verticalAlign=middle;resizable=0;points=[];" vertex="1" connectable="0" parent="QSTW8lEdJ63yRF9R9Cr1-47">
          <mxGeometry x="-0.078" y="4" relative="1" as="geometry">
            <mxPoint as="offset" />
          </mxGeometry>
        </mxCell>
        <mxCell id="QSTW8lEdJ63yRF9R9Cr1-51" style="edgeStyle=orthogonalEdgeStyle;rounded=0;orthogonalLoop=1;jettySize=auto;html=1;entryX=0;entryY=0.5;entryDx=0;entryDy=0;" edge="1" parent="1" source="QSTW8lEdJ63yRF9R9Cr1-45" target="QSTW8lEdJ63yRF9R9Cr1-49">
          <mxGeometry relative="1" as="geometry" />
        </mxCell>
        <mxCell id="QSTW8lEdJ63yRF9R9Cr1-52" value="ja" style="edgeLabel;html=1;align=center;verticalAlign=middle;resizable=0;points=[];" vertex="1" connectable="0" parent="QSTW8lEdJ63yRF9R9Cr1-51">
          <mxGeometry x="0.3236" y="-3" relative="1" as="geometry">
            <mxPoint as="offset" />
          </mxGeometry>
        </mxCell>
        <mxCell id="QSTW8lEdJ63yRF9R9Cr1-45" value="Werkt auto mail en toeveogen kalender" style="rhombus;whiteSpace=wrap;html=1;" vertex="1" parent="1">
          <mxGeometry x="2290" y="400" width="80" height="80" as="geometry" />
        </mxCell>
        <mxCell id="QSTW8lEdJ63yRF9R9Cr1-64" style="edgeStyle=orthogonalEdgeStyle;rounded=0;orthogonalLoop=1;jettySize=auto;html=1;entryX=0;entryY=0.5;entryDx=0;entryDy=0;" edge="1" parent="1" source="QSTW8lEdJ63yRF9R9Cr1-49" target="QSTW8lEdJ63yRF9R9Cr1-54">
          <mxGeometry relative="1" as="geometry" />
        </mxCell>
        <mxCell id="QSTW8lEdJ63yRF9R9Cr1-49" value="" style="rounded=1;whiteSpace=wrap;html=1;" vertex="1" parent="1">
          <mxGeometry x="2400" y="410" width="120" height="60" as="geometry" />
        </mxCell>
        <mxCell id="QSTW8lEdJ63yRF9R9Cr1-53" value="aanmelden parkeer mogelijkheden" style="text;strokeColor=none;align=center;fillColor=none;html=1;verticalAlign=middle;whiteSpace=wrap;rounded=0;" vertex="1" parent="1">
          <mxGeometry x="2430" y="425" width="60" height="30" as="geometry" />
        </mxCell>
        <mxCell id="QSTW8lEdJ63yRF9R9Cr1-65" style="edgeStyle=orthogonalEdgeStyle;rounded=0;orthogonalLoop=1;jettySize=auto;html=1;entryX=0;entryY=0.5;entryDx=0;entryDy=0;" edge="1" parent="1" source="QSTW8lEdJ63yRF9R9Cr1-54" target="QSTW8lEdJ63yRF9R9Cr1-55">
          <mxGeometry relative="1" as="geometry" />
        </mxCell>
        <mxCell id="QSTW8lEdJ63yRF9R9Cr1-54" value="op de website een link zetten voor het aanmelden van event met pakeren." style="rounded=1;whiteSpace=wrap;html=1;" vertex="1" parent="1">
          <mxGeometry x="2570" y="410" width="120" height="60" as="geometry" />
        </mxCell>
        <mxCell id="QSTW8lEdJ63yRF9R9Cr1-66" style="edgeStyle=orthogonalEdgeStyle;rounded=0;orthogonalLoop=1;jettySize=auto;html=1;entryX=0;entryY=0.5;entryDx=0;entryDy=0;" edge="1" parent="1" source="QSTW8lEdJ63yRF9R9Cr1-55" target="QSTW8lEdJ63yRF9R9Cr1-56">
          <mxGeometry relative="1" as="geometry" />
        </mxCell>
        <mxCell id="QSTW8lEdJ63yRF9R9Cr1-55" value="Form invullen voor parkeer plek met Ticket" style="rounded=1;whiteSpace=wrap;html=1;" vertex="1" parent="1">
          <mxGeometry x="2730" y="410" width="120" height="60" as="geometry" />
        </mxCell>
        <mxCell id="QSTW8lEdJ63yRF9R9Cr1-67" style="edgeStyle=orthogonalEdgeStyle;rounded=0;orthogonalLoop=1;jettySize=auto;html=1;entryX=0;entryY=0.5;entryDx=0;entryDy=0;" edge="1" parent="1" source="QSTW8lEdJ63yRF9R9Cr1-56" target="QSTW8lEdJ63yRF9R9Cr1-57">
          <mxGeometry relative="1" as="geometry" />
        </mxCell>
        <mxCell id="QSTW8lEdJ63yRF9R9Cr1-56" value="Form in database opslaan" style="rounded=1;whiteSpace=wrap;html=1;" vertex="1" parent="1">
          <mxGeometry x="2880" y="410" width="120" height="60" as="geometry" />
        </mxCell>
        <mxCell id="QSTW8lEdJ63yRF9R9Cr1-68" style="edgeStyle=orthogonalEdgeStyle;rounded=0;orthogonalLoop=1;jettySize=auto;html=1;entryX=0;entryY=0.5;entryDx=0;entryDy=0;" edge="1" parent="1" source="QSTW8lEdJ63yRF9R9Cr1-57" target="QSTW8lEdJ63yRF9R9Cr1-58">
          <mxGeometry relative="1" as="geometry" />
        </mxCell>
        <mxCell id="QSTW8lEdJ63yRF9R9Cr1-57" value="AI laten tellen" style="rounded=1;whiteSpace=wrap;html=1;" vertex="1" parent="1">
          <mxGeometry x="3030" y="410" width="120" height="60" as="geometry" />
        </mxCell>
        <mxCell id="QSTW8lEdJ63yRF9R9Cr1-69" style="edgeStyle=orthogonalEdgeStyle;rounded=0;orthogonalLoop=1;jettySize=auto;html=1;entryX=0;entryY=0.5;entryDx=0;entryDy=0;" edge="1" parent="1" source="QSTW8lEdJ63yRF9R9Cr1-58" target="QSTW8lEdJ63yRF9R9Cr1-59">
          <mxGeometry relative="1" as="geometry" />
        </mxCell>
        <mxCell id="QSTW8lEdJ63yRF9R9Cr1-58" value="de hoeveelheden formuleren menemen in mail voor parkeer plekken" style="rounded=1;whiteSpace=wrap;html=1;" vertex="1" parent="1">
          <mxGeometry x="3180" y="410" width="120" height="60" as="geometry" />
        </mxCell>
        <mxCell id="QSTW8lEdJ63yRF9R9Cr1-70" style="edgeStyle=orthogonalEdgeStyle;rounded=0;orthogonalLoop=1;jettySize=auto;html=1;" edge="1" parent="1" source="QSTW8lEdJ63yRF9R9Cr1-59" target="QSTW8lEdJ63yRF9R9Cr1-60">
          <mxGeometry relative="1" as="geometry" />
        </mxCell>
        <mxCell id="QSTW8lEdJ63yRF9R9Cr1-59" value="Aan het einde van event alle forms verwijderen uit Database" style="rounded=1;whiteSpace=wrap;html=1;" vertex="1" parent="1">
          <mxGeometry x="3320" y="410" width="120" height="60" as="geometry" />
        </mxCell>
        <mxCell id="QSTW8lEdJ63yRF9R9Cr1-71" style="edgeStyle=orthogonalEdgeStyle;rounded=0;orthogonalLoop=1;jettySize=auto;html=1;entryX=0.5;entryY=0;entryDx=0;entryDy=0;" edge="1" parent="1" source="QSTW8lEdJ63yRF9R9Cr1-60" target="QSTW8lEdJ63yRF9R9Cr1-61">
          <mxGeometry relative="1" as="geometry" />
        </mxCell>
        <mxCell id="QSTW8lEdJ63yRF9R9Cr1-60" value="testen van Process" style="rounded=1;whiteSpace=wrap;html=1;" vertex="1" parent="1">
          <mxGeometry x="3460" y="410" width="120" height="60" as="geometry" />
        </mxCell>
        <mxCell id="QSTW8lEdJ63yRF9R9Cr1-62" style="edgeStyle=orthogonalEdgeStyle;rounded=0;orthogonalLoop=1;jettySize=auto;html=1;entryX=0.5;entryY=1;entryDx=0;entryDy=0;" edge="1" parent="1" source="QSTW8lEdJ63yRF9R9Cr1-61" target="QSTW8lEdJ63yRF9R9Cr1-45">
          <mxGeometry relative="1" as="geometry" />
        </mxCell>
        <mxCell id="QSTW8lEdJ63yRF9R9Cr1-63" value="n ee" style="edgeLabel;html=1;align=center;verticalAlign=middle;resizable=0;points=[];" vertex="1" connectable="0" parent="QSTW8lEdJ63yRF9R9Cr1-62">
          <mxGeometry x="-0.3132" y="4" relative="1" as="geometry">
            <mxPoint as="offset" />
          </mxGeometry>
        </mxCell>
        <mxCell id="QSTW8lEdJ63yRF9R9Cr1-61" value="Werkt de forms in database en ai tellen" style="rhombus;whiteSpace=wrap;html=1;" vertex="1" parent="1">
          <mxGeometry x="3480" y="520" width="80" height="80" as="geometry" />
        </mxCell>
      </root>
    </mxGraphModel>
  </diagram>
</mxfile>
